<svg width="63" height="63" viewBox="0 0 63 63" fill="none" xmlns="http://www.w3.org/2000/svg">
<path d="M60.3438 36.103C61.5197 35.8834 62.4072 34.8539 62.4072 33.6158C62.4072 33.2608 62.3406 32.928 62.2741 32.6174C62.1946 32.5012 62.122 32.3804 62.0566 32.2557C62.0333 32.2134 62.0096 32.1712 61.9856 32.1293C61.4465 31.2639 60.8984 30.4031 60.3438 29.5488V29.5H60.3105C59.0738 27.6011 57.7902 25.7331 56.4609 23.8977C50.7366 15.9324 44.3022 9.05425 37.2466 2.77519C34.0737 -0.0426232 29.3034 -0.0426232 26.0863 2.73081C18.7644 9.03206 12.3966 15.8436 6.51687 23.8977C4.58656 26.5158 2.745 29.2227 1.01437 32.0183L0.938938 32.1226C0.84575 32.2513 0.745906 32.3888 0.659375 32.5286C0.659375 32.573 0.637187 32.5952 0.615 32.6174C0.504062 32.928 0.4375 33.2608 0.4375 33.6158C0.4375 34.9249 1.38934 35.9788 2.65625 36.1274V62.7813H60.3438V36.103ZM54.0048 33.9375C54.8035 34.0618 55.3848 34.3214 55.9062 34.6187V58.3438H42.5693V49.9569C42.5693 45.7635 38.7842 42.8125 34.7194 42.8125H28.254C24.2292 42.8125 20.4062 45.728 20.4062 49.9569V58.3438H7.09375V34.6697C7.63513 34.3502 8.23419 34.0684 9.06844 33.9375H11.1896C12.2989 34.1128 12.989 34.5566 13.6812 35.0003C14.5732 35.5728 15.4673 36.1452 17.2556 36.1452C19.0284 36.1452 19.9159 35.575 20.8056 35.0048C21.5001 34.561 22.1946 34.1128 23.3128 33.9375H25.4339C26.5433 34.1128 27.2356 34.5566 27.9256 35.0003C28.8175 35.5728 29.7117 36.1452 31.5 36.1452C33.2861 36.1452 34.178 35.5728 35.0722 35.0025C35.7689 34.5588 36.4633 34.1128 37.5794 33.9375H39.7094C40.8254 34.1128 41.5221 34.5588 42.2166 35.0025C43.1107 35.575 44.0027 36.1452 45.7887 36.1452C47.5748 36.1452 48.4668 35.5728 49.3609 35.0025C50.0554 34.5588 50.7521 34.1128 51.8681 33.9375H54.0048Z" fill="white"/>
</svg>
