<svg width="60" height="56" viewBox="0 0 60 56" fill="none" xmlns="http://www.w3.org/2000/svg">
<path d="M57.1429 28.5714H51.4286V11.4286H27.3886L21.6743 5.71429H5.71429V45.7143H31.4286V51.4286H2.85714C2.09938 51.4286 1.37266 51.1276 0.836838 50.5917C0.301019 50.0559 0 49.3292 0 48.5714V2.85714C0 2.09938 0.301019 1.37266 0.836838 0.836838C1.37266 0.301019 2.09938 0 2.85714 0H24.04L29.7543 5.71429H54.2857C55.0435 5.71429 55.7702 6.01531 56.306 6.55112C56.8418 7.08694 57.1429 7.81367 57.1429 8.57143V28.5714ZM51.4286 40H60V45.7143H51.4286V55.7143L37.1429 42.8571L51.4286 30V40Z" fill="white"/>
</svg>
