<svg width="60" height="60" viewBox="0 0 60 60" fill="none" xmlns="http://www.w3.org/2000/svg">
<path d="M5.71429 0C4.19876 0 2.74531 0.602039 1.67368 1.67368C0.602039 2.74531 0 4.19876 0 5.71429V51.4286C0 52.9441 0.602039 54.3975 1.67368 55.4692C2.74531 56.5408 4.19876 57.1429 5.71429 57.1429H29.7429C32.8409 59.0046 36.3856 59.992 40 60C45.3043 60 50.3914 57.8929 54.1421 54.1421C57.8929 50.3914 60 45.3043 60 40C59.995 35.697 58.6022 31.5103 56.0287 28.0618C53.4551 24.6132 49.8379 22.0866 45.7143 20.8571V17.1429L28.5714 0H5.71429ZM5.71429 5.71429H25.7143V20H40C34.6957 20 29.6086 22.1071 25.8579 25.8579C22.1071 29.6086 20 34.6957 20 40C20.0038 44.0879 21.2602 48.0765 23.6 51.4286H5.71429V5.71429ZM40 25.7143C43.7888 25.7143 47.4224 27.2194 50.1015 29.8985C52.7806 32.5776 54.2857 36.2112 54.2857 40C54.2857 43.7888 52.7806 47.4224 50.1015 50.1015C47.4224 52.7806 43.7888 54.2857 40 54.2857C36.2112 54.2857 32.5776 52.7806 29.8985 50.1015C27.2194 47.4224 25.7143 43.7888 25.7143 40C25.7143 36.2112 27.2194 32.5776 29.8985 29.8985C32.5776 27.2194 36.2112 25.7143 40 25.7143ZM37.1429 28.5714V42.8571L47.4571 49.0286L49.6 45.5429L41.4286 40.7143V28.5714H37.1429Z" fill="white"/>
</svg>
