<svg width="50" height="57" viewBox="0 0 50 57" fill="none" xmlns="http://www.w3.org/2000/svg">
<path d="M0 57V0H28.5714L45.7143 17.1V29.4975C44.8095 29.165 43.881 28.9161 42.9286 28.7508C41.9762 28.5855 41 28.5019 40 28.5V19.95H25.7143V5.7H5.71429V51.3H23.8571C24.2381 52.3925 24.7143 53.4137 25.2857 54.3638C25.8571 55.3138 26.5238 56.1925 27.2857 57H0ZM34 55.575L30 51.585L36 45.6L30 39.615L34 35.625L40 41.61L46 35.625L50 39.615L44.0714 45.6L50 51.585L46 55.575L40 49.6612L34 55.575Z" fill="white"/>
</svg>
